<svg data-v-423bf9ae="" xmlns="http://www.w3.org/2000/svg" viewBox="0 0 636.2281203370133 60" class="font"><!----><!----><!----><g data-v-423bf9ae="" id="c243132f-f3da-40d7-9fc5-a8269f0456d3" fill="black" transform="matrix(4.562737464904785,0,0,4.562737464904785,-3.1938891410827637,-13.140682220458984)"><path d="M0.70 13.02L0.70 3.78L5.99 3.78L5.99 3.78Q7.74 3.79 8.60 4.40L8.60 4.40L8.60 4.40Q9.45 5.01 9.45 6.24L9.45 6.24L9.45 6.24Q9.45 7.10 8.93 7.66L8.93 7.66L8.93 7.66Q8.40 8.23 7.36 8.37L7.36 8.37L7.36 8.39L7.36 8.39Q8.54 8.51 9.11 9.09L9.11 9.09L9.11 9.09Q9.69 9.66 9.69 10.58L9.69 10.58L9.69 10.58Q9.69 11.80 8.86 12.41L8.86 12.41L8.86 12.41Q8.04 13.02 6.36 13.02L6.36 13.02L0.70 13.02ZM3.82 7.36L5.25 7.36L5.25 7.36Q6.12 7.36 6.12 6.69L6.12 6.69L6.12 6.69Q6.12 6.02 5.25 6.02L5.25 6.02L3.82 6.02L3.82 7.36ZM3.82 10.89L5.49 10.89L5.49 10.89Q6.36 10.89 6.36 10.21L6.36 10.21L6.36 10.21Q6.36 9.55 5.49 9.55L5.49 9.55L3.82 9.55L3.82 10.89ZM17.86 11.30L17.86 11.30Q18.10 11.30 18.21 11.24L18.21 11.24L17.96 12.88L17.96 12.88Q17.49 13.16 16.93 13.16L16.93 13.16L16.93 13.16Q16.07 13.16 15.50 12.86L15.50 12.86L15.50 12.86Q14.92 12.56 14.73 11.98L14.73 11.98L14.73 11.98Q14.41 12.53 13.78 12.84L13.78 12.84L13.78 12.84Q13.16 13.16 12.24 13.16L12.24 13.16L12.24 13.16Q11.14 13.16 10.61 12.73L10.61 12.73L10.61 12.73Q10.08 12.31 10.08 11.49L10.08 11.49L10.08 11.49Q10.08 10.61 10.71 10.09L10.71 10.09L10.71 10.09Q11.34 9.56 12.81 9.24L12.81 9.24L14.20 8.93L14.20 8.65L14.20 8.65Q14.20 8.33 14.04 8.15L14.04 8.15L14.04 8.15Q13.87 7.97 13.57 7.97L13.57 7.97L13.57 7.97Q13.23 7.97 13.03 8.15L13.03 8.15L13.03 8.15Q12.84 8.34 12.82 8.82L12.82 8.82L10.16 8.41L10.16 8.41Q10.28 7.21 11.17 6.54L11.17 6.54L11.17 6.54Q12.07 5.88 13.75 5.88L13.75 5.88L13.75 5.88Q15.61 5.88 16.50 6.59L16.50 6.59L16.50 6.59Q17.39 7.31 17.39 8.76L17.39 8.76L17.39 10.72L17.39 10.72Q17.39 11.30 17.86 11.30L17.86 11.30ZM13.59 11.41L13.59 11.41Q13.86 11.41 14.03 11.23L14.03 11.23L14.03 11.23Q14.20 11.06 14.20 10.72L14.20 10.72L14.20 10.05L13.73 10.19L13.73 10.19Q13.44 10.28 13.27 10.46L13.27 10.46L13.27 10.46Q13.10 10.65 13.10 10.92L13.10 10.92L13.10 10.92Q13.10 11.16 13.24 11.28L13.24 11.28L13.24 11.28Q13.38 11.41 13.59 11.41L13.59 11.41ZM22.16 5.88L22.16 5.88Q24.11 5.88 24.97 6.57L24.97 6.57L24.97 6.57Q25.83 7.27 25.86 8.26L25.86 8.26L22.89 9.13L22.89 9.13Q22.93 8.05 22.33 8.05L22.33 8.05L22.33 8.05Q21.90 8.05 21.71 8.38L21.71 8.38L21.71 8.38Q21.52 8.71 21.52 9.56L21.52 9.56L21.52 9.56Q21.52 10.40 21.72 10.70L21.72 10.70L21.72 10.70Q21.92 10.99 22.32 10.99L22.32 10.99L22.32 10.99Q22.61 10.99 22.76 10.76L22.76 10.76L22.76 10.76Q22.92 10.53 22.95 10.07L22.95 10.07L25.83 10.96L25.83 10.96Q25.83 11.56 25.42 12.06L25.42 12.06L25.42 12.06Q25.00 12.56 24.21 12.86L24.21 12.86L24.21 12.86Q23.42 13.16 22.33 13.16L22.33 13.16L22.33 13.16Q20.34 13.16 19.31 12.22L19.31 12.22L19.31 12.22Q18.28 11.28 18.28 9.52L18.28 9.52L18.28 9.52Q18.28 7.78 19.30 6.83L19.30 6.83L19.30 6.83Q20.31 5.88 22.16 5.88L22.16 5.88ZM31.99 13.02L30.73 10.57L29.83 11.66L29.83 13.02L26.61 13.02L26.61 3.22L29.83 3.22L29.83 8.50L31.88 6.02L35.34 6.02L32.84 8.76L35.49 13.02L31.99 13.02ZM43.74 6.02L41.68 12.24L41.68 12.24Q41.20 13.65 40.64 14.47L40.64 14.47L40.64 14.47Q40.08 15.29 39.30 15.66L39.30 15.66L39.30 15.66Q38.51 16.03 37.37 16.03L37.37 16.03L37.37 16.03Q36.06 16.03 35.21 15.57L35.21 15.57L35.80 13.54L35.80 13.54Q36.02 13.66 36.29 13.72L36.29 13.72L36.29 13.72Q36.55 13.78 37.04 13.78L37.04 13.78L37.04 13.78Q37.49 13.78 37.71 13.69L37.71 13.69L37.71 13.69Q37.93 13.61 38.01 13.40L38.01 13.40L38.05 13.29L37.17 11.23L35.17 6.02L38.68 6.02L39.31 9.63L39.58 11.27L39.89 9.62L40.59 6.02L43.74 6.02ZM51.48 11.30L51.48 11.30Q51.72 11.30 51.83 11.24L51.83 11.24L51.58 12.88L51.58 12.88Q51.10 13.16 50.54 13.16L50.54 13.16L50.54 13.16Q49.69 13.16 49.11 12.86L49.11 12.86L49.11 12.86Q48.54 12.56 48.34 11.98L48.34 11.98L48.34 11.98Q48.02 12.53 47.40 12.84L47.40 12.84L47.40 12.84Q46.77 13.16 45.85 13.16L45.85 13.16L45.85 13.16Q44.76 13.16 44.23 12.73L44.23 12.73L44.23 12.73Q43.69 12.31 43.69 11.49L43.69 11.49L43.69 11.49Q43.69 10.61 44.32 10.09L44.32 10.09L44.32 10.09Q44.95 9.56 46.42 9.24L46.42 9.24L47.81 8.93L47.81 8.65L47.81 8.65Q47.81 8.33 47.65 8.15L47.65 8.15L47.65 8.15Q47.49 7.97 47.18 7.97L47.18 7.97L47.18 7.97Q46.84 7.97 46.65 8.15L46.65 8.15L46.65 8.15Q46.45 8.34 46.44 8.82L46.44 8.82L43.78 8.41L43.78 8.41Q43.89 7.21 44.79 6.54L44.79 6.54L44.79 6.54Q45.68 5.88 47.36 5.88L47.36 5.88L47.36 5.88Q49.22 5.88 50.11 6.59L50.11 6.59L50.11 6.59Q51.00 7.31 51.00 8.76L51.00 8.76L51.00 10.72L51.00 10.72Q51.00 11.30 51.48 11.30L51.48 11.30ZM47.21 11.41L47.21 11.41Q47.47 11.41 47.64 11.23L47.64 11.23L47.64 11.23Q47.81 11.06 47.81 10.72L47.81 10.72L47.81 10.05L47.35 10.19L47.35 10.19Q47.05 10.28 46.89 10.46L46.89 10.46L46.89 10.46Q46.72 10.65 46.72 10.92L46.72 10.92L46.72 10.92Q46.72 11.16 46.86 11.28L46.86 11.28L46.86 11.28Q47.00 11.41 47.21 11.41L47.21 11.41ZM57.27 5.88L57.27 5.88Q57.76 5.88 58.00 6.05L58.00 6.05L57.74 8.68L57.74 8.68Q57.61 8.58 57.37 8.52L57.37 8.52L57.37 8.52Q57.13 8.46 56.85 8.46L56.85 8.46L56.85 8.46Q56.21 8.46 55.84 8.76L55.84 8.76L55.84 8.76Q55.47 9.07 55.47 9.66L55.47 9.66L55.47 13.02L52.25 13.02L52.25 6.02L55.15 6.02L55.22 7.77L55.22 7.77Q55.72 5.88 57.27 5.88L57.27 5.88ZM62.93 3.22L66.15 3.22L66.15 13.02L63.25 13.02L63.15 11.63L63.15 11.63Q62.85 12.35 62.29 12.75L62.29 12.75L62.29 12.75Q61.73 13.16 60.94 13.16L60.94 13.16L60.94 13.16Q59.65 13.16 58.96 12.22L58.96 12.22L58.96 12.22Q58.27 11.28 58.27 9.56L58.27 9.56L58.27 9.56Q58.27 7.81 58.98 6.85L58.98 6.85L58.98 6.85Q59.68 5.88 60.96 5.88L60.96 5.88L60.96 5.88Q61.67 5.88 62.16 6.23L62.16 6.23L62.16 6.23Q62.65 6.58 62.93 7.20L62.93 7.20L62.93 3.22ZM62.24 10.91L62.24 10.91Q62.58 10.91 62.76 10.59L62.76 10.59L62.76 10.59Q62.93 10.28 62.93 9.58L62.93 9.58L62.93 9.46L62.93 9.46Q62.93 8.79 62.76 8.47L62.76 8.47L62.76 8.47Q62.59 8.15 62.24 8.15L62.24 8.15L62.24 8.15Q61.88 8.15 61.70 8.44L61.70 8.44L61.70 8.44Q61.52 8.74 61.52 9.52L61.52 9.52L61.52 9.52Q61.52 10.30 61.70 10.61L61.70 10.61L61.70 10.61Q61.88 10.91 62.24 10.91L62.24 10.91ZM75.80 3.78L75.80 3.78Q79.67 3.78 79.67 7.01L79.67 7.01L79.67 7.01Q79.67 8.51 78.69 9.30L78.69 9.30L78.69 9.30Q77.71 10.08 75.80 10.08L75.80 10.08L74.16 10.08L74.16 13.02L70.90 13.02L70.90 3.78L75.80 3.78ZM75.26 7.84L75.26 7.84Q75.87 7.84 76.14 7.63L76.14 7.63L76.14 7.63Q76.41 7.42 76.41 6.97L76.41 6.97L76.41 6.97Q76.41 6.52 76.14 6.31L76.14 6.31L76.14 6.31Q75.87 6.10 75.26 6.10L75.26 6.10L74.16 6.10L74.16 7.84L75.26 7.84ZM82.24 5.57L82.24 5.57Q81.28 5.57 80.89 5.26L80.89 5.26L80.89 5.26Q80.49 4.96 80.49 4.23L80.49 4.23L80.49 4.23Q80.49 3.50 80.89 3.19L80.89 3.19L80.89 3.19Q81.28 2.88 82.24 2.88L82.24 2.88L82.24 2.88Q83.19 2.88 83.59 3.19L83.59 3.19L83.59 3.19Q83.99 3.50 83.99 4.23L83.99 4.23L83.99 4.23Q83.99 4.96 83.59 5.26L83.59 5.26L83.59 5.26Q83.19 5.57 82.24 5.57L82.24 5.57ZM83.85 6.02L83.85 13.02L80.63 13.02L80.63 6.02L83.85 6.02ZM84.70 13.02L84.70 11.17L86.88 8.76L87.54 8.12L86.52 8.15L84.70 8.15L84.70 6.02L91.10 6.02L91.10 7.87L88.96 10.25L88.27 10.92L89.42 10.89L91.24 10.89L91.24 13.02L84.70 13.02ZM91.73 13.02L91.73 11.17L93.91 8.76L94.57 8.12L93.55 8.15L91.73 8.15L91.73 6.02L98.13 6.02L98.13 7.87L95.98 10.25L95.30 10.92L96.45 10.89L98.27 10.89L98.27 13.02L91.73 13.02ZM106.46 11.30L106.46 11.30Q106.69 11.30 106.81 11.24L106.81 11.24L106.55 12.88L106.55 12.88Q106.08 13.16 105.52 13.16L105.52 13.16L105.52 13.16Q104.66 13.16 104.09 12.86L104.09 12.86L104.09 12.86Q103.52 12.56 103.32 11.98L103.32 11.98L103.32 11.98Q103.00 12.53 102.38 12.84L102.38 12.84L102.38 12.84Q101.75 13.16 100.83 13.16L100.83 13.16L100.83 13.16Q99.74 13.16 99.20 12.73L99.20 12.73L99.20 12.73Q98.67 12.31 98.67 11.49L98.67 11.49L98.67 11.49Q98.67 10.61 99.30 10.09L99.30 10.09L99.30 10.09Q99.93 9.56 101.40 9.24L101.40 9.24L102.79 8.93L102.79 8.65L102.79 8.65Q102.79 8.33 102.63 8.15L102.63 8.15L102.63 8.15Q102.47 7.97 102.16 7.97L102.16 7.97L102.16 7.97Q101.82 7.97 101.63 8.15L101.63 8.15L101.63 8.15Q101.43 8.34 101.42 8.82L101.42 8.82L98.76 8.41L98.76 8.41Q98.87 7.21 99.76 6.54L99.76 6.54L99.76 6.54Q100.66 5.88 102.34 5.88L102.34 5.88L102.34 5.88Q104.20 5.88 105.09 6.59L105.09 6.59L105.09 6.59Q105.98 7.31 105.98 8.76L105.98 8.76L105.98 10.72L105.98 10.72Q105.98 11.30 106.46 11.30L106.46 11.30ZM102.19 11.41L102.19 11.41Q102.45 11.41 102.62 11.23L102.62 11.23L102.62 11.23Q102.79 11.06 102.79 10.72L102.79 10.72L102.79 10.05L102.33 10.19L102.33 10.19Q102.03 10.28 101.86 10.46L101.86 10.46L101.86 10.46Q101.70 10.65 101.70 10.92L101.70 10.92L101.70 10.92Q101.70 11.16 101.84 11.28L101.84 11.28L101.84 11.28Q101.98 11.41 102.19 11.41L102.19 11.41ZM118.89 3.78L118.89 9.21L118.89 9.21Q118.89 11.10 117.74 12.13L117.74 12.13L117.74 12.13Q116.59 13.16 114.49 13.16L114.49 13.16L114.49 13.16Q112.48 13.16 111.49 12.29L111.49 12.29L111.49 12.29Q110.50 11.42 110.50 9.91L110.50 9.91L110.50 9.91Q110.50 9.44 110.59 8.96L110.59 8.96L113.85 8.41L113.85 8.41Q113.78 8.89 113.78 9.39L113.78 9.39L113.78 9.39Q113.78 10.11 114.01 10.41L114.01 10.41L114.01 10.41Q114.24 10.71 114.70 10.71L114.70 10.71L114.70 10.71Q115.18 10.71 115.40 10.30L115.40 10.30L115.40 10.30Q115.63 9.88 115.63 8.97L115.63 8.97L115.63 3.78L118.89 3.78ZM127.39 11.30L127.39 11.30Q127.62 11.30 127.74 11.24L127.74 11.24L127.48 12.88L127.48 12.88Q127.01 13.16 126.45 13.16L126.45 13.16L126.45 13.16Q125.59 13.16 125.02 12.86L125.02 12.86L125.02 12.86Q124.45 12.56 124.25 11.98L124.25 11.98L124.25 11.98Q123.93 12.53 123.31 12.84L123.31 12.84L123.31 12.84Q122.68 13.16 121.76 13.16L121.76 13.16L121.76 13.16Q120.67 13.16 120.13 12.73L120.13 12.73L120.13 12.73Q119.60 12.31 119.60 11.49L119.60 11.49L119.60 11.49Q119.60 10.61 120.23 10.09L120.23 10.09L120.23 10.09Q120.86 9.56 122.33 9.24L122.33 9.24L123.72 8.93L123.72 8.65L123.72 8.65Q123.72 8.33 123.56 8.15L123.56 8.15L123.56 8.15Q123.40 7.97 123.09 7.97L123.09 7.97L123.09 7.97Q122.75 7.97 122.56 8.15L122.56 8.15L122.56 8.15Q122.36 8.34 122.35 8.82L122.35 8.82L119.69 8.41L119.69 8.41Q119.80 7.21 120.69 6.54L120.69 6.54L120.69 6.54Q121.59 5.88 123.27 5.88L123.27 5.88L123.27 5.88Q125.13 5.88 126.02 6.59L126.02 6.59L126.02 6.59Q126.91 7.31 126.91 8.76L126.91 8.76L126.91 10.72L126.91 10.72Q126.91 11.30 127.39 11.30L127.39 11.30ZM123.12 11.41L123.12 11.41Q123.38 11.41 123.55 11.23L123.55 11.23L123.55 11.23Q123.72 11.06 123.72 10.72L123.72 10.72L123.72 10.05L123.26 10.19L123.26 10.19Q122.96 10.28 122.79 10.46L122.79 10.46L122.79 10.46Q122.63 10.65 122.63 10.92L122.63 10.92L122.63 10.92Q122.63 11.16 122.77 11.28L122.77 11.28L122.77 11.28Q122.91 11.41 123.12 11.41L123.12 11.41ZM137.94 5.88L137.94 5.88Q138.98 5.88 139.56 6.50L139.56 6.50L139.56 6.50Q140.14 7.11 140.14 8.23L140.14 8.23L140.14 13.02L136.92 13.02L136.92 9.07L136.92 9.07Q136.92 8.61 136.81 8.43L136.81 8.43L136.81 8.43Q136.70 8.26 136.43 8.26L136.43 8.26L136.43 8.26Q136.08 8.26 135.92 8.53L135.92 8.53L135.92 8.53Q135.76 8.79 135.76 9.35L135.76 9.35L135.76 13.02L132.54 13.02L132.54 9.07L132.54 9.07Q132.54 8.61 132.43 8.43L132.43 8.43L132.43 8.43Q132.31 8.26 132.05 8.26L132.05 8.26L132.05 8.26Q131.70 8.26 131.54 8.53L131.54 8.53L131.54 8.53Q131.38 8.79 131.38 9.35L131.38 9.35L131.38 13.02L128.16 13.02L128.16 6.02L131.05 6.02L131.12 7.55L131.12 7.55Q131.43 6.73 132.05 6.31L132.05 6.31L132.05 6.31Q132.66 5.88 133.56 5.88L133.56 5.88L133.56 5.88Q134.36 5.88 134.88 6.24L134.88 6.24L134.88 6.24Q135.41 6.61 135.63 7.28L135.63 7.28L135.63 7.28Q135.97 6.59 136.55 6.24L136.55 6.24L136.55 6.24Q137.13 5.88 137.94 5.88L137.94 5.88Z"></path></g><!----><!----></svg>