<svg data-v-fde0c5aa="" xmlns="http://www.w3.org/2000/svg" viewBox="0 0 300 300" class="iconLeft"><!----><defs data-v-fde0c5aa=""><!----></defs><rect data-v-fde0c5aa="" fill="#F3E195" x="0" y="0" width="300px" height="300px" class="logo-background-square"></rect><defs data-v-fde0c5aa=""><!----></defs><g data-v-fde0c5aa="" id="5d3e7467-cd35-4df2-9e69-514def30fa90" fill="#E96E75" transform="matrix(1.2910473346710205,0,0,1.2910473346710205,73.19835743911776,142.4021861943279)"><path d="M4.54 5.89L4.54 5.89L4.54 5.89Q5.21 6.24 5.61 6.90L5.61 6.90L5.61 6.90Q6.02 7.55 6.02 8.34L6.02 8.34L6.02 8.34Q6.02 8.92 5.80 9.42L5.80 9.42L5.80 9.42Q5.59 9.93 5.21 10.30L5.21 10.30L5.21 10.30Q4.84 10.67 4.34 10.89L4.34 10.89L4.34 10.89Q3.84 11.10 3.26 11.10L3.26 11.10L3.19 11.10L0 11.10L0 0.69L3.19 0.69L3.26 0.69L3.26 0.69Q3.84 0.69 4.34 0.90L4.34 0.90L4.34 0.90Q4.84 1.12 5.21 1.49L5.21 1.49L5.21 1.49Q5.59 1.86 5.80 2.37L5.80 2.37L5.80 2.37Q6.02 2.87 6.02 3.44L6.02 3.44L6.02 3.44Q6.02 4.24 5.61 4.89L5.61 4.89L5.61 4.89Q5.21 5.54 4.54 5.89ZM13.79 11.09L13.79 11.09L12.39 7.06L10.46 7.06L9.06 11.09L6.52 11.09L10.14 0.67L12.71 0.67L16.32 11.09L13.79 11.09ZM20.93 8.75L20.93 8.75L20.93 8.75Q21.28 8.75 21.58 8.60L21.58 8.60L21.58 8.60Q21.88 8.46 22.11 8.20L22.11 8.20L22.11 8.20Q22.34 7.95 22.48 7.62L22.48 7.62L22.48 7.62Q22.61 7.28 22.61 6.90L22.61 6.90L24.96 6.90L24.96 6.90Q24.96 7.74 24.67 8.50L24.67 8.50L24.67 8.50Q24.37 9.25 23.80 9.86L23.80 9.86L23.80 9.86Q23.23 10.46 22.49 10.78L22.49 10.78L22.49 10.78Q21.76 11.10 20.93 11.10L20.93 11.10L20.92 11.10L20.92 11.10Q20.09 11.10 19.36 10.78L19.36 10.78L19.36 10.78Q18.63 10.46 18.05 9.86L18.05 9.86L18.05 9.86Q17.50 9.27 17.20 8.53L17.20 8.53L17.20 8.53Q16.90 7.80 16.88 6.99L16.88 6.99L16.88 4.83L16.88 4.83Q16.90 3.99 17.19 3.25L17.19 3.25L17.19 3.25Q17.49 2.51 18.05 1.92L18.05 1.92L18.05 1.92Q18.63 1.32 19.36 0.99L19.36 0.99L19.36 0.99Q20.09 0.67 20.92 0.67L20.92 0.67L20.93 0.67L20.93 0.67Q21.76 0.67 22.49 0.99L22.49 0.99L22.49 0.99Q23.23 1.32 23.80 1.92L23.80 1.92L23.80 1.92Q24.37 2.52 24.67 3.28L24.67 3.28L24.67 3.28Q24.96 4.03 24.96 4.87L24.96 4.87L22.61 4.87L22.61 4.87Q22.61 4.49 22.48 4.16L22.48 4.16L22.48 4.16Q22.34 3.82 22.11 3.57L22.11 3.57L22.11 3.57Q21.88 3.32 21.58 3.17L21.58 3.17L21.58 3.17Q21.28 3.02 20.93 3.02L20.93 3.02L20.93 3.02Q20.58 3.02 20.27 3.17L20.27 3.17L20.27 3.17Q19.96 3.32 19.73 3.57L19.73 3.57L19.73 3.57Q19.50 3.82 19.37 4.16L19.37 4.16L19.37 4.16Q19.24 4.49 19.24 4.87L19.24 4.87L19.24 6.90L19.24 6.90Q19.24 7.28 19.37 7.62L19.37 7.62L19.37 7.62Q19.50 7.95 19.73 8.20L19.73 8.20L19.73 8.20Q19.96 8.46 20.27 8.60L20.27 8.60L20.27 8.60Q20.58 8.75 20.93 8.75ZM33.14 0.67L33.14 0.67L28.70 5.89L33.12 11.09L30.77 11.09L28.11 8.13L28.11 11.09L25.76 11.09L25.76 0.67L28.11 0.67L28.11 3.65L30.79 0.67L33.14 0.67ZM41.48 0.67L41.48 0.67L38.68 5.88L38.68 11.09L36.33 11.09L36.33 5.88L33.52 0.67L35.87 0.67L37.51 3.70L39.13 0.67L41.48 0.67ZM48.87 11.09L48.87 11.09L47.47 7.06L45.54 7.06L44.14 11.09L41.61 11.09L45.22 0.67L47.80 0.67L51.41 11.09L48.87 11.09ZM58.74 11.09L56.32 11.09L54.50 7.14L54.47 7.14L54.47 11.09L52.12 11.09L52.12 0.67L55.29 0.67L55.30 0.67L55.30 0.67Q55.97 0.67 56.57 0.92L56.57 0.92L56.57 0.92Q57.16 1.18 57.60 1.62L57.60 1.62L57.60 1.62Q58.04 2.06 58.30 2.65L58.30 2.65L58.30 2.65Q58.55 3.23 58.55 3.91L58.55 3.91L58.55 3.91Q58.55 4.86 58.06 5.62L58.06 5.62L58.06 5.62Q57.57 6.38 56.77 6.79L56.77 6.79L58.74 11.09ZM66.79 5.88L66.79 5.88L66.79 5.88Q66.79 6.93 66.40 7.88L66.40 7.88L66.40 7.88Q66.01 8.82 65.25 9.58L65.25 9.58L65.25 9.58Q64.55 10.26 63.68 10.65L63.68 10.65L63.68 10.65Q62.80 11.03 61.84 11.09L61.84 11.09L61.53 11.09L59.43 11.09L59.43 0.67L61.53 0.67L61.53 0.67Q62.58 0.67 63.54 1.06L63.54 1.06L63.54 1.06Q64.50 1.44 65.25 2.18L65.25 2.18L65.25 2.18Q66.01 2.94 66.40 3.89L66.40 3.89L66.40 3.89Q66.79 4.83 66.79 5.88ZM77.74 0.67L77.74 0.67L77.74 0.67Q78.41 0.67 79.00 0.92L79.00 0.92L79.00 0.92Q79.59 1.18 80.03 1.62L80.03 1.62L80.03 1.62Q80.47 2.06 80.72 2.65L80.72 2.65L80.72 2.65Q80.98 3.23 80.98 3.91L80.98 3.91L80.98 3.91Q80.98 4.58 80.72 5.17L80.72 5.17L80.72 5.17Q80.47 5.75 80.03 6.20L80.03 6.20L80.03 6.20Q79.59 6.64 79.00 6.89L79.00 6.89L79.00 6.89Q78.41 7.14 77.74 7.14L77.74 7.14L77.73 7.14L76.92 7.14L76.92 11.09L74.56 11.09L74.56 0.67L77.73 0.67L77.74 0.67ZM83.87 0.67L83.87 0.67L83.87 11.09L81.52 11.09L81.52 0.67L83.87 0.67ZM91.66 0.67L91.66 0.67L91.66 3.02L87.60 8.74L91.66 8.74L91.66 11.09L84.87 11.09L84.87 8.74L88.91 3.02L84.87 3.02L84.87 0.67L91.66 0.67ZM99.43 0.67L99.43 0.67L99.43 3.02L95.37 8.74L99.43 8.74L99.43 11.09L92.64 11.09L92.64 8.74L96.68 3.02L92.64 3.02L92.64 0.67L99.43 0.67ZM107.27 11.09L107.27 11.09L105.87 7.06L103.94 7.06L102.54 11.09L100.00 11.09L103.61 0.67L106.19 0.67L109.80 11.09L107.27 11.09ZM123.97 0.67L123.97 7.91L123.97 7.91Q123.96 8.57 123.70 9.15L123.70 9.15L123.70 9.15Q123.44 9.73 123.00 10.16L123.00 10.16L123.00 10.16Q122.57 10.58 121.98 10.84L121.98 10.84L121.98 10.84Q121.39 11.09 120.74 11.09L120.74 11.09L120.74 11.09Q120.06 11.09 119.48 10.84L119.48 10.84L119.48 10.84Q118.90 10.58 118.46 10.14L118.46 10.14L118.46 10.14Q118.02 9.70 117.77 9.11L117.77 9.11L117.77 9.11Q117.52 8.53 117.52 7.85L117.52 7.85L119.87 7.85L119.87 7.85Q119.87 8.22 120.12 8.48L120.12 8.48L120.12 8.48Q120.37 8.74 120.74 8.74L120.74 8.74L120.74 8.74Q121.10 8.74 121.36 8.48L121.36 8.48L121.36 8.48Q121.62 8.22 121.62 7.85L121.62 7.85L121.62 0.67L123.97 0.67ZM131.80 11.09L131.80 11.09L130.40 7.06L128.46 7.06L127.06 11.09L124.53 11.09L128.14 0.67L130.72 0.67L134.33 11.09L131.80 11.09ZM144.69 0.67L144.69 0.67L144.69 0.67L144.69 11.09L142.34 11.09L142.34 7.45L141.06 11.09L138.71 11.09L137.41 7.34L137.41 11.09L135.06 11.09L135.06 0.67L137.45 0.67L139.89 7.70L142.34 0.67L142.34 0.67L144.69 0.67Z"></path></g><defs data-v-fde0c5aa=""><!----></defs><g data-v-fde0c5aa="" id="b6199873-d2e0-449c-9e49-5684eed72487" stroke="none" fill="#E96E75" transform="matrix(0.22442619502544403,0,0,0.22442619502544403,38.87786924518962,138.778654247631)"><path d="M93.408 82.469c-.614-2.99-1.555-5.993-2.106-8.996-.603-3.283-1.397-6.566-1.964-9.855-.704-4.088-1.353-8.207-2.209-12.262-.353-1.675.2-3.132.311-4.686.269-3.779.534-7.527-.258-11.29a171.047 171.047 0 0 1-1.705-9.427c-.397-2.604-.625-5.234-.925-7.85 2.672-.81 3.35-4.973 2.665-7.344-.761-2.63-2.574-4.07-5.994-4.725-.521-.1-1.005-.382-1.515-.552-.558-.187-1.129-.484-1.694-.482-1.72.006-3.457.01-5.157.238-2.943.394-5.868.937-8.794 1.451-3.854.676-7.702 1.394-11.556 2.068-.831.145-1.682.271-2.521.252-3.927-.09-7.741.71-11.577 1.376-1.242.216-2.52.22-3.779.346-2.342.234-4.682.485-7.022.731-2.378.25-4.753.524-7.134.75-2.554.242-5.141.278-7.658.719-1.566.274-2.976.966-3.967 2.617-1.078 1.796-2.608 3.525-3.091 5.578-.103.435-.758.872-.758 1.308v2.98c0 1.063.882 2.126 1.09 3.19.346 1.762.774 3.588 2.02 5.011 1.15 1.314 2.45 2.599 3.668 3.85a34.223 34.223 0 0 0 2.847 2.605c4.92 4.018 9.918 7.974 14.824 12.009 3.897 3.205 7.751 6.481 11.599 9.747 4.441 3.77 8.923 7.502 13.288 11.36 8.364 7.391 17.161 14.243 25.97 21.078 1.492 1.158 3.161.937 4.235-.57 1.747-2.45 4.279-4.882 6.636-6.807C92.232 86.026 94 85.072 95 84.16v-.851c-1-.278-1.526-.517-1.592-.84zM8.838 22.733l.728 7.391c-1.078-2.35-1.376-4.745-.728-7.391zM11 32.96c0 .024.022.047-.049.071-.11-.354-.207-.702-.237-1.062-.352-4.23-.796-8.463-1.145-12.694C9.465 18.022 8 17.129 11 16.587V32.96zm22.932-19.843c.417.238.944.384 1.232.73 1.925 2.319 3.604 4.846 4.105 7.847.237 1.42-.296 2.976-.535 4.461-.022.138-.464.33-.674.292-.47-.086-.917-.302-1.334-.451 1.426-4.81-.138-8.835-2.897-12.58l.103-.299zM13.309 33.589l-.3.002c-.297-5.705-.02-11.419-.121-17.127l.296-.088c.135.264.39.53.386.792-.07 5.474-.168 10.947-.261 16.421zm2.139-3.432c-.824 1.873.271 3.918-.631 5.791-.371-6.012-.009-12.026-.027-18.039l.329-.094c.179.513.513 1.028.51 1.54-.02 3.495-.112 6.99-.18 10.485-.001.106.038.228-.001.317zm1.688 7.831c-.407-.499-.84-.792-.816-1.042.097-1.021.327-2.03.522-3.041.053-.277.239-.55.22-.815-.156-2.213.96-4.16 1.272-6.274.462-3.125.605-6.215-1.179-9.015-.591-.927-1.42-1.702-2.237-2.658 2.866-.262 5.798-.516 8.727-.802 2.482-.242 4.958-.544 7.442-.761.509-.044 1.261-.017 1.527.297 2.651 3.13 4.067 6.641 2.989 10.832-.173.674-.481.932-1.235.954-1.143.033-2.294.238-3.414.491-.7.158-1.34.546-1.062 1.586-1.564-.282-1.937 1.131-2.755 1.845-.74.647-1.352.84-2.262.503-1.332-.493-2.702-.884-4.06-1.308a1.605 1.605 0 0 0-.523-.048c-1.824.064-2.562.892-2.72 3.059-.141 1.94-.273 3.882-.436 6.197zm1.586 1.129c-.17-.381-.5-.77-.482-1.142.08-1.66.258-3.316.407-4.973.011-.126.072-.247.116-.392.558.453.646 3.605-.041 6.507zm2.072 1.844c-.157-.244-.447-.486-.451-.733-.037-2.075-.021-4.151-.021-6.226l.405-.079c.136.267.386.532.391.801.033 2.043.018 4.086.018 6.13a44.85 44.85 0 0 0-.342.107zm2.099 1.902c-.182-.293-.514-.583-.521-.879-.045-2.132-.024-4.266-.024-6.399l.3-.088c.156.22.445.438.449.66.034 2.202.021 4.405-.204 6.706zm2.171 1.413l-.291.072c-.142-.306-.401-.61-.406-.919-.036-2.114-.019-4.23-.019-6.72.457.605.987.983.983 1.356-.017 2.071-.164 4.141-.267 6.211zm2.147 1.907l-.358.117c-.203-.447-.567-.888-.582-1.341-.065-1.974-.028-3.952-.028-6.104 1.104.436 1.353.993 1.279 1.85-.155 1.821-.213 3.651-.311 5.478zm1.612 1.741c-.105-.266-.308-.535-.298-.796.073-2.015.187-4.029.289-6.043l.288-.134c.166.365.494.741.472 1.095-.124 1.939-.333 3.873-.751 5.878zm2.254 1.321l-.304.068c-.099-.288-.291-.578-.281-.862.065-1.906.173-3.812.451-5.806.131.258.381.52.374.774-.051 1.943-.154 3.885-.24 5.826zm2.014 1.636l-.357.009c-.11-.3-.309-.599-.314-.901-.03-1.831-.015-3.663-.015-5.495l.426-.088c.178.332.514.667.507.995-.036 1.827-.155 3.653-.247 5.48zm2.113 1.612c-.296-.377-.632-.606-.628-.83.03-1.68.126-3.358.202-5.037l.296-.111c.182.427.532.861.517 1.281-.052 1.478-.231 2.951-.387 4.697zm2.74-2.108c-.115.622-.134 1.266-.162 1.901-.026.593-.005 1.189-.005 1.835-.856-.41-.89-.719-.683-5.261.94.398 1.021.602.85 1.525zm2.634 2.682c-.195 1.018-.042 2.103-.042 3.3-.923-.379-1.213-.889-1.167-1.708.067-1.186.017-2.378.017-3.673.92.498 1.403.978 1.192 2.081zm2.471 2.279c-.231 1.014-.197 2.089-.3 3.406-1.477-1.749-.466-3.596-.886-5.424 1.07.503 1.413 1.024 1.186 2.018zm2.602 6.102c-.791-.578-1.489-1.129-1.409-2.302.084-1.217.019-2.445.019-3.992.678.632 1.097 1.002 1.488 1.4.138.14.305.354.293.522-.106 1.431-.25 2.86-.391 4.372zm1.629 1.345l-.322.022c0-.458-.005-.917.001-1.375.008-.566.029-1.132.036-1.698.006-.529.001-1.058.001-1.587l.45-.079c.052.454.169.912.142 1.362-.068 1.121-.201 2.237-.308 3.355zm2.156 1.996c-.899-1.409-.031-2.949-.154-4.415.677 1.425.179 2.938.154 4.415zm2.412 1.914c-1.467-1.312-.528-2.981-.924-4.739 2.151 1.466.364 3.286.924 4.739zm2.716 2.238c-1.244-.635-1.58-2.431-.932-4.358 1.775 1.175.546 2.862.932 4.358zm2.182 1.922c-.71-.357-.979-2.106-.587-3.81 1.016.584 1.093 1.079.587 3.81zm1.933-2.36c.802 1.31-.058 2.747.361 4.186-.832-.385-.893-1.201-.361-4.186zm2.342 5.999c-1.115-1.438-.267-3.13-.665-4.724 1.25.36.877.077.665 4.724zm1.41 1.75c-.144.011-.431.021-.431.031v-4.335c2 1.353.011 2.867.431 4.304zm3.955-.088c-.187.873-.113 1.803-.162 2.827-.883-.521-1.523-.968-1.416-2.072.105-1.081.023-2.181.023-3.415 1.164.644 1.843 1.319 1.555 2.66zm2.491 4.924l-.306.122c-.201-.374-.553-.74-.574-1.124-.072-1.299-.028-2.605-.028-3.919.689.27.975.747.926 1.539-.071 1.123-.018 2.254-.018 3.382zm1.623.821c.092-1.11.02-2.234.02-3.473 1.099.553 1.448 1.244 1.385 2.305-.066 1.105.118 2.224.204 3.502-1.047-.585-1.707-1.142-1.609-2.334zm4.243.969c-.187 1.102-.139 2.244-.2 3.477-.82-.36-1.09-.845-1.046-1.624.067-1.192.017-2.391.017-3.62.783.263 1.429.589 1.229 1.767zm2.664 1.797c-.227 1.21-.258 2.457-.374 3.688l-.273.168c-.207-.345-.586-.688-.589-1.034-.012-1.303.098-2.606.165-3.97.744.042 1.265.118 1.071 1.148zm2.447 5.947c-1.203-.512-1.712-1.157-1.344-2.429.246-.851.152-1.802.215-2.791l1.49.552-.361 4.668zm1.518.757l.267-4.487c.438.351 1.119.678 1.088.908-.166 1.236.351 2.762-1.355 3.579zm2.761-3.1c0-.232-.103-.562.017-.738.715-1.049-.045-1.514-.746-1.978-1.997-1.324-4.083-2.524-5.995-3.96-2.759-2.072-5.439-4.256-8.074-6.487-5.113-4.331-10.241-8.647-15.231-13.118-5.591-5.009-11.019-10.2-16.549-15.277a1124.29 1124.29 0 0 0-12.559-11.35c-1.79-1.594-3.682-3.074-5.542-4.618.911-.705 2.154-.616 3.096.137.553.442 1.064 1.155 1.886.357.091-.088.463.044.662.153 1.127.615 2.154.331 3-.472 1.033-.98 2.075-1.783 3.608-1.496.105.02.238-.114.41-.203l-.408-1.453c.899-.306 1.847-.792 2.9-.209.03.017.07.054.088.046 1.897-.858 3.437.54 5.141.859 2.234.419 4.752-.228 4.925-3.006.021-.343.646-.903 1.021-.929 2.545-.179 5.024.093 7.288 1.452.263.158.703.11 1.036.041.799-.167 1.575-.446 2.376-.6.801-.154 1.766.015 1.72-1.302-.005-.131.534-.389.829-.403 1.052-.05 2.107-.019 3.161-.019-.009-1.086-.503-1.471-2.089-1.686-2.238-.304-3.352.138-3.742 1.484-1.102.176-2.482-.483-3.129.808-1.661-.402-3.364-.871-5.093-1.212-.958-.189-1.957-.219-2.938-.221-1.217-.002-1.813.513-2.102 1.647-.593 2.333-1.041 2.598-3.519 2.066 1.853-2.287 1.482-4.799.444-7.18-.958-2.199-2.287-4.236-3.463-6.362 1.974-.255 4.185-.535 6.395-.828 4.175-.555 8.362-1.033 12.52-1.699 5.178-.833 10.328-1.843 15.498-2.727 2.103-.36 4.228-.594 6.343-.881.101-.014.256-.03.305.026 1.049 1.201 2.566.913 3.886 1.251 1.359.347 2.989 2.653 3.027 4.407.051 2.344-1.216 4.223-2.227 6.256-1.813-1.372-3.687-1.899-5.795-1.244-.685.213-1 .578-.925 1.394.133 1.45-.333 1.781-1.73 1.335-.88-.281-1.702-.359-2.524.173-.153.099-.449.07-.643 0-2.674-.958-5.089-.337-7.353 1.2-.75.509-.584 1.302-.317 1.9.155.347.819.465 1.257.682.014.007.053-.036.129-.092-.007-1.015.701-1.534 1.564-1.818 1.556-.512 3.111-1.081 4.721 0 .356.239 1.121.206 1.51-.023.697-.41 1.238-.162 1.87.027 1.262.377 2.528.109 2.921-.747.311-.677.338-1.485.552-2.535 1.211.167 2.546.327 3.867.561.2.035.457.402.486.64.206 1.717.379 3.438.508 5.162.017.225-.217.577-.43.692-.614.333-.988.815-.664 1.44.179.344.739.49 1.127.724l.23-.234.609 3.114c-1.971-1.194-4.044-1.435-6.087-.997-4.181.897-5.732 3.384-6.178 7.476-.274 2.508.119 4.938 1.68 7.051 1.242 1.682 2.908 2.791 4.855 3.409 1.54.489 3.063 1.195 4.792.713.651-.181 1.394-.029 2.119-.029 1.456 11.885 1.833 23.857 5.218 35.121l-5.545 4.329zM61.96 36.118c-.373-.288-.633-.719-.958-1.072-.403-.437-.765-.94-1.241-1.28-2.544-1.816-5.441-2.517-8.777-2.657-.62.07-1.504.101-2.359.277-5.747 1.189-10.219 4.911-10.081 11.702.063 3.125 1.873 5.556 4.882 6.374 2.65.721 5.287.543 7.894-.213 4.344-1.259 8.334-3.156 11.359-6.67 1.988-2.306 1.696-4.595-.719-6.461zM54.199 33h-5.444c.016 0 .031-.433.047-.563 1.805.08 3.61.246 5.415.325-.006.051-.012.238-.018.238zm28.665 25.743c.659 1.392 1.314 2.819 1.695 4.303.995 3.88-.533 6.443-4.354 7.437-1.179.307-2.416.391-3.284.524-4.531-.281-8.317-1.373-11.035-4.866-3.14-4.037-2.302-9.931 1.767-12.371 2.217-1.329 4.577-1.286 7.025-.858 2.537.443 4.777 1.428 6.531 3.329.671.727 1.231 1.604 1.655 2.502zM38.036 34.136c.014.147.066.294.026.326-.803.642-1.572 1.345-2.444 1.875-.542.329-.921-.035-.934-.687-.018-.915.849-2.091 1.729-2.307.833-.204.947.305.892.95l.731-.157zm46.413 40.093c.02.943-.195 1.873-1.045 2.402-.357.222-.902.139-1.362.195.018-.452-.426-.918-.324-1.349.062-.264.282-.475.282-.901v1.316c1-.948 1.237-1.544.298-2.291.618-.126 1.219-.336 1.491-.225.237.097.654.552.66.853zM66.67 49.617c-.337-1.067.175-2.675 1.076-3.136.283-.145.694-.039 1.047-.047-.185.204-.4.39-.55.617-.335.507-.637 1.036-.953 1.556l.242.169 1.598-1.781c-.005 1.618-1.086 2.688-2.46 2.622zm2.249-20.259c.073-1.16.959-1.637 3.446-1.91-.128 1.258-1.691 2.15-3.446 1.91zM55.294 54.909c-.466.359-.824.793-1.275.937-.416.133-1.164.133-1.355-.121-.403-.536-.016-1.03.565-1.316.829-.407 1.51-.309 2.065.5z"></path></g><!----></svg>