<svg data-v-423bf9ae="" xmlns="http://www.w3.org/2000/svg" viewBox="0 0 832.3489829790627 60" class="font"><!----><!----><!----><g data-v-423bf9ae="" id="36514a52-3d06-4622-87f3-7e4dbf994ee6" fill="white" transform="matrix(5.752636432647705,0,0,5.752636432647705,0.000009769559255801141,-3.85426664352417)"><path d="M4.54 5.89L4.54 5.89L4.54 5.89Q5.21 6.24 5.61 6.90L5.61 6.90L5.61 6.90Q6.02 7.55 6.02 8.34L6.02 8.34L6.02 8.34Q6.02 8.92 5.80 9.42L5.80 9.42L5.80 9.42Q5.59 9.93 5.21 10.30L5.21 10.30L5.21 10.30Q4.84 10.67 4.34 10.89L4.34 10.89L4.34 10.89Q3.84 11.10 3.26 11.10L3.26 11.10L3.19 11.10L0 11.10L0 0.69L3.19 0.69L3.26 0.69L3.26 0.69Q3.84 0.69 4.34 0.90L4.34 0.90L4.34 0.90Q4.84 1.12 5.21 1.49L5.21 1.49L5.21 1.49Q5.59 1.86 5.80 2.37L5.80 2.37L5.80 2.37Q6.02 2.87 6.02 3.44L6.02 3.44L6.02 3.44Q6.02 4.24 5.61 4.89L5.61 4.89L5.61 4.89Q5.21 5.54 4.54 5.89ZM13.79 11.09L13.79 11.09L12.39 7.06L10.46 7.06L9.06 11.09L6.52 11.09L10.14 0.67L12.71 0.67L16.32 11.09L13.79 11.09ZM20.93 8.75L20.93 8.75L20.93 8.75Q21.28 8.75 21.58 8.60L21.58 8.60L21.58 8.60Q21.88 8.46 22.11 8.20L22.11 8.20L22.11 8.20Q22.34 7.95 22.48 7.62L22.48 7.62L22.48 7.62Q22.61 7.28 22.61 6.90L22.61 6.90L24.96 6.90L24.96 6.90Q24.96 7.74 24.67 8.50L24.67 8.50L24.67 8.50Q24.37 9.25 23.80 9.86L23.80 9.86L23.80 9.86Q23.23 10.46 22.49 10.78L22.49 10.78L22.49 10.78Q21.76 11.10 20.93 11.10L20.93 11.10L20.92 11.10L20.92 11.10Q20.09 11.10 19.36 10.78L19.36 10.78L19.36 10.78Q18.63 10.46 18.05 9.86L18.05 9.86L18.05 9.86Q17.50 9.27 17.20 8.53L17.20 8.53L17.20 8.53Q16.90 7.80 16.88 6.99L16.88 6.99L16.88 4.83L16.88 4.83Q16.90 3.99 17.19 3.25L17.19 3.25L17.19 3.25Q17.49 2.51 18.05 1.92L18.05 1.92L18.05 1.92Q18.63 1.32 19.36 0.99L19.36 0.99L19.36 0.99Q20.09 0.67 20.92 0.67L20.92 0.67L20.93 0.67L20.93 0.67Q21.76 0.67 22.49 0.99L22.49 0.99L22.49 0.99Q23.23 1.32 23.80 1.92L23.80 1.92L23.80 1.92Q24.37 2.52 24.67 3.28L24.67 3.28L24.67 3.28Q24.96 4.03 24.96 4.87L24.96 4.87L22.61 4.87L22.61 4.87Q22.61 4.49 22.48 4.16L22.48 4.16L22.48 4.16Q22.34 3.82 22.11 3.57L22.11 3.57L22.11 3.57Q21.88 3.32 21.58 3.17L21.58 3.17L21.58 3.17Q21.28 3.02 20.93 3.02L20.93 3.02L20.93 3.02Q20.58 3.02 20.27 3.17L20.27 3.17L20.27 3.17Q19.96 3.32 19.73 3.57L19.73 3.57L19.73 3.57Q19.50 3.82 19.37 4.16L19.37 4.16L19.37 4.16Q19.24 4.49 19.24 4.87L19.24 4.87L19.24 6.90L19.24 6.90Q19.24 7.28 19.37 7.62L19.37 7.62L19.37 7.62Q19.50 7.95 19.73 8.20L19.73 8.20L19.73 8.20Q19.96 8.46 20.27 8.60L20.27 8.60L20.27 8.60Q20.58 8.75 20.93 8.75ZM33.14 0.67L33.14 0.67L28.70 5.89L33.12 11.09L30.77 11.09L28.11 8.13L28.11 11.09L25.76 11.09L25.76 0.67L28.11 0.67L28.11 3.65L30.79 0.67L33.14 0.67ZM41.48 0.67L41.48 0.67L38.68 5.88L38.68 11.09L36.33 11.09L36.33 5.88L33.52 0.67L35.87 0.67L37.51 3.70L39.13 0.67L41.48 0.67ZM48.87 11.09L48.87 11.09L47.47 7.06L45.54 7.06L44.14 11.09L41.61 11.09L45.22 0.67L47.80 0.67L51.41 11.09L48.87 11.09ZM58.74 11.09L56.32 11.09L54.50 7.14L54.47 7.14L54.47 11.09L52.12 11.09L52.12 0.67L55.29 0.67L55.30 0.67L55.30 0.67Q55.97 0.67 56.57 0.92L56.57 0.92L56.57 0.92Q57.16 1.18 57.60 1.62L57.60 1.62L57.60 1.62Q58.04 2.06 58.30 2.65L58.30 2.65L58.30 2.65Q58.55 3.23 58.55 3.91L58.55 3.91L58.55 3.91Q58.55 4.86 58.06 5.62L58.06 5.62L58.06 5.62Q57.57 6.38 56.77 6.79L56.77 6.79L58.74 11.09ZM66.79 5.88L66.79 5.88L66.79 5.88Q66.79 6.93 66.40 7.88L66.40 7.88L66.40 7.88Q66.01 8.82 65.25 9.58L65.25 9.58L65.25 9.58Q64.55 10.26 63.68 10.65L63.68 10.65L63.68 10.65Q62.80 11.03 61.84 11.09L61.84 11.09L61.53 11.09L59.43 11.09L59.43 0.67L61.53 0.67L61.53 0.67Q62.58 0.67 63.54 1.06L63.54 1.06L63.54 1.06Q64.50 1.44 65.25 2.18L65.25 2.18L65.25 2.18Q66.01 2.94 66.40 3.89L66.40 3.89L66.40 3.89Q66.79 4.83 66.79 5.88ZM77.74 0.67L77.74 0.67L77.74 0.67Q78.41 0.67 79.00 0.92L79.00 0.92L79.00 0.92Q79.59 1.18 80.03 1.62L80.03 1.62L80.03 1.62Q80.47 2.06 80.72 2.65L80.72 2.65L80.72 2.65Q80.98 3.23 80.98 3.91L80.98 3.91L80.98 3.91Q80.98 4.58 80.72 5.17L80.72 5.17L80.72 5.17Q80.47 5.75 80.03 6.20L80.03 6.20L80.03 6.20Q79.59 6.64 79.00 6.89L79.00 6.89L79.00 6.89Q78.41 7.14 77.74 7.14L77.74 7.14L77.73 7.14L76.92 7.14L76.92 11.09L74.56 11.09L74.56 0.67L77.73 0.67L77.74 0.67ZM83.87 0.67L83.87 0.67L83.87 11.09L81.52 11.09L81.52 0.67L83.87 0.67ZM91.66 0.67L91.66 0.67L91.66 3.02L87.60 8.74L91.66 8.74L91.66 11.09L84.87 11.09L84.87 8.74L88.91 3.02L84.87 3.02L84.87 0.67L91.66 0.67ZM99.43 0.67L99.43 0.67L99.43 3.02L95.37 8.74L99.43 8.74L99.43 11.09L92.64 11.09L92.64 8.74L96.68 3.02L92.64 3.02L92.64 0.67L99.43 0.67ZM107.27 11.09L107.27 11.09L105.87 7.06L103.94 7.06L102.54 11.09L100.00 11.09L103.61 0.67L106.19 0.67L109.80 11.09L107.27 11.09ZM123.97 0.67L123.97 7.91L123.97 7.91Q123.96 8.57 123.70 9.15L123.70 9.15L123.70 9.15Q123.44 9.73 123.00 10.16L123.00 10.16L123.00 10.16Q122.57 10.58 121.98 10.84L121.98 10.84L121.98 10.84Q121.39 11.09 120.74 11.09L120.74 11.09L120.74 11.09Q120.06 11.09 119.48 10.84L119.48 10.84L119.48 10.84Q118.90 10.58 118.46 10.14L118.46 10.14L118.46 10.14Q118.02 9.70 117.77 9.11L117.77 9.11L117.77 9.11Q117.52 8.53 117.52 7.85L117.52 7.85L119.87 7.85L119.87 7.85Q119.87 8.22 120.12 8.48L120.12 8.48L120.12 8.48Q120.37 8.74 120.74 8.74L120.74 8.74L120.74 8.74Q121.10 8.74 121.36 8.48L121.36 8.48L121.36 8.48Q121.62 8.22 121.62 7.85L121.62 7.85L121.62 0.67L123.97 0.67ZM131.80 11.09L131.80 11.09L130.40 7.06L128.46 7.06L127.06 11.09L124.53 11.09L128.14 0.67L130.72 0.67L134.33 11.09L131.80 11.09ZM144.69 0.67L144.69 0.67L144.69 0.67L144.69 11.09L142.34 11.09L142.34 7.45L141.06 11.09L138.71 11.09L137.41 7.34L137.41 11.09L135.06 11.09L135.06 0.67L137.45 0.67L139.89 7.70L142.34 0.67L142.34 0.67L144.69 0.67Z"></path></g><!----><!----></svg>